<?xml version="1.0" encoding="utf-8"?>
<!-- Svg Vector Icons : http://www.onlinewebfonts.com/icon -->
<!DOCTYPE svg PUBLIC "-//W3C//DTD SVG 1.1//EN" "http://www.w3.org/Graphics/SVG/1.1/DTD/svg11.dtd">
<svg version="1.1" xmlns="http://www.w3.org/2000/svg" xmlns:xlink="http://www.w3.org/1999/xlink" x="0px" y="0px" viewBox="0 0 1000 1000" enable-background="new 0 0 1000 1000" xml:space="preserve">
<metadata> Svg Vector Icons : http://www.onlinewebfonts.com/icon </metadata>
<g><path d="M961.6,500c0,255-206.7,461.6-461.6,461.6C245,961.6,38.4,755,38.4,500C38.4,245,245,38.4,500,38.4C754.9,38.4,961.6,245,961.6,500L961.6,500z M990,500c0-270.6-219.4-490-490-490C229.3,10,10,229.3,10,500s219.3,490,490,490C770.6,990,990,770.6,990,500L990,500z M465.1,272.4V500c0,4,1.7,7.8,4.6,10.5L718,738c5.8,5.3,14.7,4.9,20-0.9c5.3-5.8,4.9-14.7-0.9-20L488.9,489.5l4.6,10.5V272.4c0-7.8-6.4-14.2-14.2-14.2C471.5,258.3,465.1,264.6,465.1,272.4L465.1,272.4z"/></g>
</svg>